<svg id="Capa_1" enable-background="new 0 0 512 512" height="512" viewBox="0 0 512 512" width="512" xmlns="http://www.w3.org/2000/svg"><g><path d="m125 481h-80c-24.813 0-45-20.186-45-45v-360c0-24.813 20.187-45 45-45h80c24.814 0 45 20.187 45 45v360c0 24.814-20.186 45-45 45z" fill="#f9f9f9"/><g><path d="m0 256v180c0 24.814 20.187 45 45 45h80c24.814 0 45-20.186 45-45v-180z" fill="#e4e4ff"/></g><path d="m435 398.5-98.241-.001c-16.243 0-32.19-2.892-47.398-8.595l-52.764-19.786c-4.693-1.76-8.197-5.747-9.339-10.628l-45.66-195.159c-.908-3.881-.234-7.964 1.873-11.348 2.108-3.384 5.476-5.789 9.359-6.686l87.895-20.283c23.668-5.459 48.253-1.728 69.229 10.509l92.603 54.02c4.608 2.689 7.442 7.622 7.442 12.957v180c0 3.979-1.58 7.794-4.394 10.606-2.811 2.813-6.627 4.394-10.605 4.394z" fill="#ffdcaa"/><g><path d="m203.045 255.999 24.213 103.49c1.142 4.881 4.646 8.868 9.339 10.628l52.764 19.786c15.208 5.703 31.155 8.595 47.398 8.595l98.241.002c3.978 0 7.794-1.58 10.606-4.394 2.813-2.812 4.394-6.628 4.394-10.606v-127.5h-246.955z" fill="#ffc687"/></g><g><path d="m375 353.5h-13.944c-24.812 0-48.022-11.079-63.583-30h-82.473c-8.284 0-15-6.716-15-15s6.716-15 15-15h90c5.016 0 9.698 2.507 12.48 6.68 9.735 14.603 26.025 23.32 43.575 23.32h13.945c8.284 0 15 6.716 15 15s-6.716 15-15 15z" fill="#ebaf78"/></g><path d="m497 428.5h-62c-8.284 0-15-6.716-15-15v-240c0-8.284 6.716-15 15-15h62c8.284 0 15 6.716 15 15v240c0 8.284-6.716 15-15 15z" fill="#45f6ff"/><g><path d="m420 255.999v157.5c0 8.284 6.716 15 15 15h62c8.284 0 15-6.716 15-15v-157.5z" fill="#2ebeef"/></g><path d="m85 421c-8.284 0-15-6.716-15-15v-45.203l10-104.797-10-104.797v-45.203c0-8.284 6.716-15 15-15s15 6.716 15 15v300c0 8.284-6.716 15-15 15z" fill="#524798"/><path d="m80 256-10 104.797v45.203c0 8.284 6.716 15 15 15s15-6.716 15-15v-150z" fill="#38336b"/><g><path d="m155 136c-33.213 0-63.273 13.495-85 35.298v169.404c21.727 21.803 51.787 35.298 85 35.298 66.274 0 120-53.726 120-120s-53.726-120-120-120z" fill="#ffe196"/></g><path d="m70 256v84.702c21.727 21.803 51.787 35.298 85 35.298 66.274 0 120-53.726 120-120z" fill="#ffb454"/><g><path d="m155 121c-32.188 0-61.776 11.33-85 30.203v43.229c19.101-26.297 50.085-43.432 85-43.432 57.898 0 105 47.102 105 105s-47.102 105-105 105c-34.915 0-65.899-17.134-85-43.432v43.229c23.224 18.873 52.812 30.203 85 30.203 74.439 0 135-60.56 135-135s-60.561-135-135-135z" fill="#ffb454"/></g><path d="m260 256c0 57.897-47.102 105-105 105-34.915 0-65.899-17.134-85-43.432v43.229c23.224 18.873 52.812 30.203 85 30.203 74.439 0 135-60.56 135-135z" fill="#ff8659"/><path d="m207.5 218.499c-20.678 0-37.5 16.822-37.5 37.5s16.822 37.5 37.5 37.5h110.973v-75z" fill="#ffdcaa"/><g><path d="m170 255.999c0 20.678 16.822 37.5 37.5 37.5h110.973v-37.5z" fill="#ffc687"/></g></g></svg>